<?xml version="1.0" encoding="UTF-8"?>
<svg width="48px" height="48px" viewBox="0 0 48 48" version="1.1" xmlns="http://www.w3.org/2000/svg" xmlns:xlink="http://www.w3.org/1999/xlink">
    <!-- Generator: Sketch 48 (47235) - http://www.bohemiancoding.com/sketch -->
    <title>icon-about-person</title>
    <desc>Created with Sketch.</desc>
    <defs></defs>
    <g id="Price-Desktop" stroke="none" stroke-width="1" fill="none" fill-rule="evenodd" transform="translate(-596.000000, -674.000000)">
        <g id="content" transform="translate(-6.000000, 185.000000)">
            <g id="block-contact-info" transform="translate(581.000000, 389.000000)">
                <g id="person-info" transform="translate(21.000000, 100.000000)">
                    <g id="icon-about-person">
                        <path d="M18.713081,21.7402026 C19.086626,24.8277058 21.7173368,28.0232615 24.1155754,28.0232615 C26.8635158,28.0232615 29.4703833,24.6636259 29.8816802,21.7402026 C30.0386486,21.630149 30.2929772,21.3560156 30.3784157,20.7477194 C30.3784157,20.7477194 30.9685374,18.6286877 30.1936301,18.8628017 C30.4638542,18.0424023 31.3659257,14.8688573 29.6194039,12.8918948 C29.6194039,12.8918948 28.8107187,11.7733502 26.823777,11.171057 C26.754234,11.1170307 26.6846911,11.0630044 26.5992526,11.0069771 C26.5992526,11.0069771 26.6469392,11.0550005 26.7164821,11.1410424 C26.5992526,11.1090268 26.4840099,11.0870161 26.3588326,11.0550005 C26.2495508,10.9449469 26.1343082,10.8208865 25.9932353,10.6948251 C25.9932353,10.6948251 26.1104649,10.8208865 26.2574986,11.0309888 C26.2038512,11.014981 26.1561646,11.0069771 26.1025171,11.0009742 C26.0091309,10.858905 25.901836,10.7108329 25.7607632,10.5707647 C25.7607632,10.5707647 25.8223584,10.6788173 25.8938883,10.858905 C25.528291,10.5867725 24.7990834,9.96046761 24.7990834,9.26412859 C24.7990834,9.26412859 24.3400999,9.47623185 24.0698758,9.87442572 C24.1692229,9.54626595 24.3559954,9.25012177 24.6441019,9 C24.6441019,9 24.3400999,9.15607599 24.061928,9.49223965 C23.8433644,9.61630005 23.3545768,9.95246371 23.1836998,10.5627608 L23.0287183,10.4847228 C23.1141568,10.3046352 23.2154909,10.1325514 23.3625245,9.94445981 C23.3625245,9.94445981 23.1538957,10.1405553 22.9591754,10.4527073 L22.6412647,10.2886274 C22.734651,10.1085397 22.8657891,9.92845202 23.0287183,9.74236142 C23.0287183,9.74236142 22.8578414,9.87442572 22.6790166,10.1005358 C22.7267032,9.89043351 22.7187554,9.65631953 22.0749863,10.3586615 C22.0749863,10.3586615 19.18796,11.6252781 18.3415229,14.2525572 C18.3415229,14.2525572 17.8527352,15.431131 18.5044521,18.9108251 C17.5805242,18.4646079 18.2083978,20.7477194 18.2083978,20.7477194 C18.3097318,21.3640195 18.5580995,21.630149 18.713081,21.7402026 Z M23.9764895,9.60829615 C23.8354167,9.81239552 23.7201741,10.0545134 23.6585789,10.3506576 L23.5572448,10.3126391 C23.6347356,10.0625173 23.7658737,9.82039941 23.9764895,9.60829615 Z" id="Fill-1" fill="#19B1CE"></path>
                        <path d="M40,41 C38,41.5 36.1322572,31.8923819 36.1322572,31.8923819 C35.5202791,30.5257165 32.3828982,29.3131262 31.2125895,28.8909206 C30.9324308,28.7968748 30.7695015,28.7428485 30.7695015,28.7428485 C28.30172,27.8664218 28.2858244,27 28.2858244,27 C23.4496083,36.5986731 19.779727,27.0240117 19.779727,27.0240117 C19.4459208,28.320643 14.4706188,29.8373814 14.4706188,29.8373814 C13.0181644,30.3996551 12.3982386,31.2440662 12.3982386,31.2440662 C10.2483677,34.4556298 10.5,40 8,41 C8.0238433,42.624791 10.7212598,43.4059873 10.7212598,43.4059873 C13,44.5 17.5,47.5 24,47.5 C30.5,47.5 37.1873232,43.742151 37.1873232,43.742151 C38.0337604,43.2098918 39.4423963,41.6163 40,41 Z" id="Fill-2" fill="#19B1CE"></path>
                        <circle id="oval" stroke="#19B1CE" stroke-width="0.8" cx="24" cy="24" r="23.6"></circle>
                    </g>
                </g>
            </g>
        </g>
    </g>
</svg>