<?xml version="1.0" encoding="UTF-8"?>
<svg width="21px" height="20px" viewBox="0 0 21 20" version="1.1" xmlns="http://www.w3.org/2000/svg" xmlns:xlink="http://www.w3.org/1999/xlink">
    <!-- Generator: Sketch 48 (47235) - http://www.bohemiancoding.com/sketch -->
    <title>call-answer</title>
    <desc>Created with Sketch.</desc>
    <defs></defs>
    <g id="Contact-Desktop" stroke="none" stroke-width="1" fill="none" fill-rule="evenodd" transform="translate(-546.000000, -408.000000)">
        <g id="content" transform="translate(-2.000000, 185.000000)">
            <g id="contact-us" transform="translate(91.000000, 78.000000)">
                <g id="form">
                    <g id="telephon" transform="translate(454.006410, 143.000000)">
                        <g id="call-answer" transform="translate(0.012821, 0.000000)">
                            <path d="M22.6248847,17.8093678 L19.524622,14.7196552 C18.9071071,14.1067816 17.8844905,14.1254023 17.2454632,14.7624138 L15.6835376,16.3185057 C15.5848575,16.2643103 15.4827169,16.2077011 15.375328,16.1476437 C14.3889883,15.603046 13.0390144,14.8566092 11.6184476,13.44 C10.1936706,12.0204023 9.44390934,10.6731034 8.89571854,9.6895977 C8.83787157,9.5854023 8.78244692,9.48494253 8.72771435,9.38954023 L9.77599589,8.34649425 L10.2913702,7.83229885 C10.9313779,7.19436782 10.9490262,6.17563218 10.3329531,5.56097701 L7.23269047,2.47091954 C6.61661744,1.85712644 5.59353942,1.87574713 4.9535317,2.51367816 L4.07977151,3.38936782 L4.10364852,3.41298851 C3.8106649,3.78551724 3.56583903,4.21517241 3.38364705,4.67850575 C3.21570054,5.11954023 3.11113768,5.5404023 3.06332599,5.96212644 C2.65395636,9.34396552 4.20480861,12.4347126 8.41362207,16.6287931 C14.2314808,22.4258046 18.9199107,21.9878736 19.1221732,21.9664943 C19.5626868,21.914023 19.98486,21.8091379 20.4138965,21.6431034 C20.8748266,21.4636782 21.3057086,21.2200575 21.6793204,20.9287356 L21.6984105,20.9456322 L22.5835901,20.0818966 C23.2222713,19.4440805 23.2406693,18.425 22.6248847,17.8093678 Z" id="Shape" fill="#19B1CE" fill-rule="nonzero"></path>
                            <rect id="rectangle" fill="#D8D8D8" opacity="0" x="0.987179487" y="0" width="24.1538462" height="24"></rect>
                        </g>
                    </g>
                </g>
            </g>
        </g>
    </g>
</svg>