<?xml version="1.0" encoding="UTF-8"?>
<svg width="33px" height="32px" viewBox="0 0 33 32" version="1.1" xmlns="http://www.w3.org/2000/svg" xmlns:xlink="http://www.w3.org/1999/xlink">
    <!-- Generator: Sketch 48 (47235) - http://www.bohemiancoding.com/sketch -->
    <title>logotype-la</title>
    <desc>Created with Sketch.</desc>
    <defs>
        <polygon id="path-1" points="0.0712518942 0.0895135135 17.9682032 0.0895135135 17.9682032 32 0.0712518942 32"></polygon>
        <polygon id="path-3" points="0 0.0238652529 14.8911375 0.0238652529 14.8911375 31.995517 0 31.995517"></polygon>
    </defs>
    <g id="logotype-l&amp;a" stroke="none" stroke-width="1" fill="none" fill-rule="evenodd" transform="translate(-10.000000, 0.000000)">
        <g id="logotype-la">
            <g transform="translate(10.000000, 0.000000)">
                <g id="Group-3" transform="translate(15.000000, 0.000000)">
                    <mask id="mask-2" fill="white">
                        <use xlink:href="#path-1"></use>
                    </mask>
                    <g id="Clip-2"></g>
                    <path d="M9.77752742,5.31385946 C9.63454355,5.46924685 9.63439839,5.58946306 9.60943065,5.69987748 C9.3227371,6.9694991 9.03909194,8.23984144 8.7519629,9.50931892 C7.95647903,13.0262919 7.15968871,16.5428324 6.36391452,20.0598054 C6.28233387,20.4205982 6.28407581,20.4223279 6.6549629,20.4224721 C8.44189839,20.4230486 10.2285435,20.4227604 12.0153339,20.4227604 C12.0616403,20.4227604 12.1083823,20.4197333 12.1545435,20.4229045 C12.314221,20.4340036 12.4036403,20.3849946 12.352979,20.2062559 C12.3436887,20.1732468 12.3418016,20.1380757 12.3359952,20.1039135 C12.0202694,18.2649225 11.7059952,16.4254991 11.3885274,14.5866523 C10.9357694,11.9645261 10.4808339,9.34268829 10.0261887,6.72099459 C9.94852742,6.27285045 9.8679629,5.82513874 9.77752742,5.31385946 Z M9.80118871,0.105354955 C10.6021887,0.105354955 11.4031887,0.104057658 12.2041887,0.106075676 C12.4844952,0.106652252 12.4884145,0.109390991 12.5351565,0.37994955 C12.9587371,2.83328288 13.3797048,5.2869045 13.8038661,7.74009369 C14.2792694,10.4890667 14.7585919,13.2374631 15.2334145,15.9865802 C15.9062371,19.8822198 16.5763016,23.7787243 17.2473823,27.6747964 C17.4744145,28.9925622 17.7005758,30.3106162 17.9274629,31.6285261 C17.9351565,31.6739315 17.943721,31.7193369 17.9546081,31.7641658 C17.99235,31.9182559 17.9576565,31.9989766 17.7722855,31.9979676 C16.7158016,31.9926342 15.6591726,31.9896072 14.6026887,31.9999856 C14.379721,32.0021477 14.3681081,31.8718414 14.3418339,31.7191928 C14.1603823,30.6626162 13.9761726,29.6066162 13.7937048,28.5503279 C13.5444629,27.1077333 13.2968177,25.6651387 13.0467048,24.2226883 C12.9921242,23.9065802 12.9886403,23.9058595 12.6451887,23.9058595 C10.3809629,23.9058595 8.11702742,23.9061477 5.85280161,23.9068685 C5.47567258,23.9070126 5.50702742,23.8732829 5.42312419,24.2441658 C4.89865645,26.5601297 4.37651129,28.8766703 3.85349516,31.1929225 C3.81560806,31.3615712 3.77815645,31.5305081 3.73722097,31.6985802 C3.66565645,31.9919135 3.66449516,31.9940757 3.34397903,31.9946523 C2.56591452,31.9960937 1.78799516,31.995373 1.01022097,31.9955171 C0.789575806,31.9955171 0.568930645,31.997391 0.348285484,31.9950847 C0.0392370968,31.9914811 0.0390919355,31.9900396 0.109059677,31.6760937 C0.334640323,30.6633369 0.561091935,29.6507243 0.786091935,28.6378234 C1.54557581,25.2167063 2.30389839,21.795445 3.06425323,18.3744721 C3.74201129,15.3248144 4.42209194,12.2757333 5.10086613,9.22621982 C5.74959194,6.31176937 6.3977371,3.39731892 7.04617258,0.482724324 C7.05618871,0.437751351 7.06504355,0.392345946 7.07636613,0.347661261 C7.13893065,0.096418018 7.13907581,0.0916612613 7.39760806,0.0909405405 C8.19889839,0.0884900901 9.00004355,0.0899315315 9.80118871,0.0899315315 L9.80118871,0.105354955 Z" id="Fill-1" fill="#140F13" mask="url(#mask-2)"></path>
                </g>
                <g id="Group-6">
                    <mask id="mask-4" fill="white">
                        <use xlink:href="#path-3"></use>
                    </mask>
                    <g id="Clip-5"></g>
                    <path d="M0.00171428571,15.9906896 C0.00185714286,10.814219 0.00142857143,5.63774842 0.00257142857,0.461277828 C0.00271428571,0.000970135747 -0.0594285714,0.0244271493 0.417571429,0.0242823529 C1.36585714,0.0239927602 2.31414286,0.0231239819 3.26242857,0.0252959276 C3.52471429,0.0260199095 3.52514286,0.0305085973 3.53142857,0.292155656 C3.53328571,0.373096833 3.53157143,0.454182805 3.53157143,0.535268778 C3.53157143,9.76487964 3.53142857,18.9946353 3.53157143,28.224391 C3.53157143,28.3748344 3.536,28.5254226 3.53485714,28.6758661 C3.53414286,28.7904 3.583,28.8460018 3.69914286,28.8415131 C3.79042857,28.838038 3.88185714,28.8419475 3.97328571,28.8419475 C7.49228571,28.8420923 11.0112857,28.8416579 14.5304286,28.8429611 C14.8728571,28.8431059 14.945,28.7443548 14.8567143,29.2428887 C14.7135714,30.0517213 14.5854286,30.8634498 14.4488571,31.6735855 C14.3951429,31.9925719 14.3925714,31.9951783 14.0918571,31.9951783 C9.49885714,31.9957575 4.90585714,31.9956127 0.312857143,31.9945991 C0.00514285714,31.9945991 0.00228571429,31.9906896 0.00214285714,31.6591059 C0.00114285714,29.9568796 0.00171428571,28.2545086 0.00171428571,26.5521376 C0.00171428571,23.0315584 0.00171428571,19.511124 0.00171428571,15.9906896" id="Fill-4" fill="#140F13" mask="url(#mask-4)"></path>
                </g>
                <path d="M10.0593658,18.430684 C9.71371587,18.4268676 9.45836696,18.5241097 9.2380151,18.7433244 C8.98165805,18.9984133 8.9107998,19.3440274 9.0788721,19.6737653 C9.30340056,20.1147897 9.60930077,20.4982626 9.89431797,20.8959326 C9.95725507,20.9838627 10.0347383,21.0180578 10.1332485,20.9554686 C10.4899881,20.7281632 10.8432711,20.4903245 11.0486448,20.09067 C11.1926656,19.8103928 11.2741814,19.5169871 11.1756712,19.1802271 C11.0294901,18.6808879 10.5091428,18.4297681 10.0593658,18.430684 M9.12380659,25.6714835 C9.46355171,25.6786584 9.88538868,25.5501217 10.1745825,25.3629649 C10.2974322,25.2835836 10.3404945,25.1994699 10.2375196,25.0721544 C10.1925851,25.0167401 10.1482267,24.9605626 10.1031482,24.9051483 C9.52504859,24.19438 8.93729964,23.4920078 8.40600684,22.7398696 C8.19357613,22.4389838 8.14676936,22.4392891 7.9208007,22.7152919 C7.86117608,22.7884143 7.81292911,22.8728333 7.76540224,22.9558784 C7.55700411,23.3193534 7.54015368,23.7226716 7.58480013,24.1256846 C7.673805,24.9259096 8.32866766,25.6843067 9.12380659,25.6714835 M15,24.8088221 C14.9870381,25.3947174 14.8028355,25.8626094 14.5013999,26.275545 C14.0264193,26.926014 13.3724207,27.0792811 12.6436754,26.9657047 C11.9314924,26.8545708 11.3467679,26.4898746 10.8722193,25.917871 C10.6524436,25.6530121 10.6471148,25.6565232 10.3861491,25.8855079 C9.93896443,26.2778349 9.44756539,26.5884907 8.90417485,26.8086213 C7.91993658,27.2072072 7.00194788,26.9612777 6.37992197,26.071596 C5.88578654,25.3651021 5.8578465,24.3908488 6.38942734,23.5675727 C6.73982999,23.0248791 7.20458517,22.6110275 7.71153845,22.2425149 C7.97495253,22.0507785 7.97509655,22.0407031 7.80212755,21.7712646 C7.63938402,21.5180075 7.50112404,21.2510115 7.38057861,20.9737874 C6.95874163,20.0042664 7.2490876,18.9097199 8.20884234,18.3893141 C8.91569651,18.0061465 9.65034671,17.9165372 10.4211461,18.073468 C10.6391936,18.1177383 10.8388065,18.2114694 11.0250254,18.3361897 C11.6329373,18.743477 11.7223742,19.4667632 11.471922,20.1520379 C11.3119149,20.5898565 10.9834034,20.885094 10.641786,21.1601809 C10.2743889,21.4558764 10.2733808,21.4519073 10.565311,21.834617 C10.884029,22.2521323 11.1964102,22.6749906 11.5185848,23.0894528 C11.7500262,23.3871328 11.755355,23.3827058 12.0079675,23.1152517 C12.3929351,22.7073537 12.7989298,22.3275446 13.3113559,22.1083299 C13.6709759,21.9542996 14.0297317,21.9346069 14.356659,22.2070986 C14.6766733,22.4739421 14.7977948,22.9279423 14.6601109,23.3271388 C14.5205547,23.7321363 14.204573,23.9594417 13.782592,23.9585258 C13.2727583,23.9576099 13.0165453,23.7622096 12.8516415,23.2196687 C12.8029624,23.0596848 12.744778,23.0525099 12.6364744,23.1436458 C12.627401,23.1512786 12.6190478,23.1596747 12.6099745,23.1671549 C11.9744107,23.7032843 11.977003,23.7043529 12.536956,24.3384876 C12.7416095,24.5705254 12.9652739,24.7819546 13.1716557,25.0098706 C13.5999736,25.4824949 14.3719252,25.4192951 14.7737433,25.0216251 C14.8322157,24.9636157 14.8932806,24.9089647 15,24.8088221" id="Fill-7" fill="#48A5B4"></path>
            </g>
        </g>
    </g>
</svg>