<?xml version="1.0" encoding="UTF-8"?>
<?xml-stylesheet type="text/css" href="style.css"?>
<svg width="17px" height="10px" viewBox="0 0 17 10" version="1.1" xmlns="http://www.w3.org/2000/svg" xmlns:xlink="http://www.w3.org/1999/xlink">
    <!-- Generator: Sketch 48 (47235) - http://www.bohemiancoding.com/sketch -->
    <title>vk-icon</title>
    <desc>Created with Sketch.</desc>
    <defs>
        <polygon id="path-1" points="0 0 15.5 0 15.5 9.04166667 0 9.04166667"></polygon>
    </defs>
    <g id="FOOTER-D" stroke="none" stroke-width="1" fill="none" fill-rule="evenodd" transform="translate(-515.000000, -40.000000)">
        <g id="Footer-desktop">
            <g id="footer" transform="translate(59.000000, 23.000000)">
                <g id="Social" transform="translate(449.000000, 6.000000)">
                    <g id="if_circle-vk">
                        <g id="vk-icon" transform="translate(7.750000, 11.625000)">
                            <mask id="mask-2" fill="white">
                                <use xlink:href="#path-1"></use>
                            </mask>
                            <g id="Clip-2"></g>
                            <path d="M7.58374932,9.00368947 L8.51009593,9.00368947 C8.51009593,9.00368947 8.78991676,8.97217224 8.9329577,8.81468456 C9.06443978,8.67009925 9.06029785,8.39855858 9.06029785,8.39855858 C9.06029785,8.39855858 9.04218896,7.12762612 9.61897627,6.94029556 C10.187865,6.75591974 10.9182889,8.16867975 11.6922511,8.71225355 C12.2776113,9.12325798 12.7224349,9.03333537 12.7224349,9.03333537 L14.7924347,9.00368947 C14.7924347,9.00368947 15.8753076,8.93533647 15.3618051,8.06496836 C15.3197116,7.9937591 15.0627195,7.42103187 13.8226461,6.24406016 C12.5245857,5.01242576 12.6986429,5.21147679 14.2620755,3.08081328 C15.2142369,1.78309117 15.5948125,0.991023689 15.4759489,0.651819459 C15.3625757,0.328570829 14.6622049,0.413864343 14.6622049,0.413864343 L12.331649,0.428736538 C12.331649,0.428736538 12.1587476,0.404704647 12.0306369,0.482906784 C11.9054159,0.559730041 11.8250817,0.738688835 11.8250817,0.738688835 C11.8250817,0.738688835 11.456065,1.74270972 10.9642354,2.59672827 C9.92644204,4.39852913 9.51138251,4.49396726 9.34175618,4.38198259 C8.94711731,4.12107898 9.04575295,3.33442852 9.04575295,2.77549008 C9.04575295,1.02904135 9.30476782,0.300993249 8.54130487,0.112579285 C8.28806942,0.0500372738 8.10139377,0.00886788692 7.45342313,0.001973492 C6.62185921,-0.00659525598 5.91811705,0.00463275861 5.5195289,0.204274737 C5.25444562,0.337041085 5.04975741,0.632909119 5.17449681,0.649948123 C5.32851867,0.6707298 5.67730739,0.746075687 5.86224921,1.00333511 C6.10122872,1.33574344 6.09275222,2.08181546 6.09275222,2.08181546 C6.09275222,2.08181546 6.23011005,4.13742855 5.77228272,4.39271814 C5.45817059,4.56783578 5.02721762,4.21031215 4.1020269,2.57535564 C3.62801716,1.73808063 3.27007768,0.812557352 3.27007768,0.812557352 C3.27007768,0.812557352 3.20101347,0.63950804 3.07791157,0.546926165 C2.92860958,0.43474451 2.71997208,0.399189131 2.71997208,0.399189131 L0.505101132,0.413864343 C0.505101132,0.413864343 0.172783798,0.423418005 0.0506451369,0.571352021 C-0.0580081829,0.702837982 0.041975989,0.974674124 0.041975989,0.974674124 C0.041975989,0.974674124 1.77580556,5.12253909 3.73907858,7.21272265 C5.53956426,9.12936444 7.58374932,9.00368947 7.58374932,9.00368947" id="Fill-1" fill="#4A4A4A" mask="url(#mask-2)"></path>
                        </g>
                    </g>
                </g>
            </g>
        </g>
    </g>
</svg>